<svg xmlns="http://www.w3.org/2000/svg" viewBox="0 0 352.92 312.07"><defs><style>.cls-1{opacity:0.2;}.cls-2{fill:#252c3c;}</style></defs><g id="Ebene_2" data-name="Ebene 2"><g id="Ebene_1-2" data-name="Ebene 1"><g class="cls-1"><path class="cls-2" d="M330.19,235.39c1.56-21.65-10.56-37.27-28-47s-20.7-39.9-34.77-49.24-37.08-13.54-37.08-13.54-23.34-1.49-39.25,4.17-26.33,34.12-45.65,39.36-35.87,17.3-38.58,38.85c-3.41,27.08,4.19,44.27,20.31,53.86s47.67,39.75,47.67,39.75c9.55,6.7,32.72,9.55,32.72,9.55s23.17,2.84,34.06-1.35c0,0,38-21.63,55.93-27S327.87,267.45,330.19,235.39Z"/><path class="cls-2" d="M234.55,91c2.38-35.17-15-89.52-30.86-90.95s-38.06,31.12-44,75.53S199,114.14,199,114.14,233.21,110.79,234.55,91Z"/><path class="cls-2" d="M135.44,162.88s-34.19-3.68-26.66-38S125.35,76,136.34,75.31s30.56,34.23,29.6,54.68S158.82,162.64,135.44,162.88Z"/><path class="cls-2" d="M239,94.14c6.21-34.71,36.17-83.25,51.95-80.79s29.4,39.41,24.45,83.94-47.52,27.89-47.52,27.89S235.46,113.67,239,94.14Z"/><path class="cls-2" d="M317.72,187.86s34.07,4.7,35.08-30.46S348.52,106,338,102.67s-37.93,25.82-42,45.89S295.1,182,317.72,187.86Z"/></g><path class="cls-2" d="M0,171a37.44,37.44,0,0,1,4.43-17.54,48,48,0,0,1,11.26-13.73,70.45,70.45,0,0,1,15.94-10.11,115.06,115.06,0,0,1,18.52-6.73,148.71,148.71,0,0,1,19-3.81,133.33,133.33,0,0,1,17.19-1.24,123.92,123.92,0,0,1,17,1.24,105.27,105.27,0,0,1,17,3.81,72.32,72.32,0,0,1,15.16,6.73,39,39,0,0,1,11.43,10.11,31.42,31.42,0,0,1,5.75,13.82q1.34,7.89-1.68,18A45.28,45.28,0,0,1,140.7,188.9a76.92,76.92,0,0,1-16.83,13.55,105.19,105.19,0,0,1-20.47,9.48,103.62,103.62,0,0,1-21.26,5,77.45,77.45,0,0,1-19.23.09q-8.86-1.16-14.18-5.06-2.11,4.62-4.43,9.4t-4.52,10.36q-2.22,5.59-4.43,12.14t-4.16,14.53c-.24.71-.47,1.45-.71,2.22a6.2,6.2,0,0,1-.88,1.86,1.33,1.33,0,0,1-1.24.62c-.48-.06-.95-.62-1.42-1.68A27.88,27.88,0,0,1,24.1,249.5a79.07,79.07,0,0,1,.8-15.24,106.2,106.2,0,0,1,3.46-15.59,84,84,0,0,1,5.13-13.29,9.24,9.24,0,0,0,1.07-2.13,1.72,1.72,0,0,0-.71-1.95,27.24,27.24,0,0,1-12.41-1.77A33,33,0,0,1,11,193a34.91,34.91,0,0,1-7.53-10A32.32,32.32,0,0,1,0,171Zm121.57,9.75q9.57-8.33,13.28-15.51t2.93-13a17.61,17.61,0,0,0-5.41-10.37,38.12,38.12,0,0,0-11.43-7.53A61.28,61.28,0,0,0,105.53,130a89.28,89.28,0,0,0-17.28-1,133.22,133.22,0,0,0-22.59,3.1,99.17,99.17,0,0,0-20.91,7.09,57.57,57.57,0,0,0-16.13,11.17,28.62,28.62,0,0,0-8.24,15.33,23.23,23.23,0,0,0,2.39,15.06q3.81,7.62,14.27,13.47,4.43-10.28,7.26-16.4t4.43-9.56c1.07-2.31,1.86-4,2.39-5.06s1-2,1.51-2.83a3.91,3.91,0,0,1,4.52-1.59,12.21,12.21,0,0,1,5.49,3.1,16.28,16.28,0,0,1,4,5.84,8.19,8.19,0,0,1,0,6.65q-1.95,4.24-3.72,7.71c-1.18,2.3-2.3,4.55-3.37,6.73s-2.19,4.43-3.36,6.73-2.43,4.88-3.73,7.71a131.91,131.91,0,0,0,16.4-1.59,150.08,150.08,0,0,0,18.87-4.17,122.66,122.66,0,0,0,18.43-6.91A67.05,67.05,0,0,0,121.57,180.75Z"/><path class="cls-2" d="M172.42,234.62l-3.55,2.74a24.76,24.76,0,0,1-4.25,2.66,23.22,23.22,0,0,1-4.87,1.78,12.77,12.77,0,0,1-5.41.08,10,10,0,0,1-3.89-1.5,20.6,20.6,0,0,1-3.37-2.75,7.53,7.53,0,0,1-2-4.61,22.87,22.87,0,0,1-.18-4.78,92,92,0,0,1,2.48-9.75,83.44,83.44,0,0,1,3.9-10.1,56.51,56.51,0,0,1,9.93-14.53,27.13,27.13,0,0,1,14.53-8.15,15.44,15.44,0,0,1,5.93-.27,12.52,12.52,0,0,1,5.4,2,10.86,10.86,0,0,1,3.55,4,7.2,7.2,0,0,1,.53,5.23c-.24.71-.5,1.41-.8,2.12a6.51,6.51,0,0,1-1.06,1.78,2.18,2.18,0,0,1-1.15.79c-.36.06-.71-.26-1.07-1-.11-.36-.26-.86-.44-1.51a8.45,8.45,0,0,0-.8-1.95,5.91,5.91,0,0,0-1.5-1.77,4,4,0,0,0-2.57-.8q-3.36,0-7.62,4.17A67.81,67.81,0,0,0,166,208.3a93.4,93.4,0,0,0-6.74,11.17,45.89,45.89,0,0,0-3.54,8.41c-.71,3.08-.65,4.7.18,4.88s2.13-.47,3.9-1.95a54.1,54.1,0,0,0,6-6.12q3.36-3.88,6.38-7.7t5.23-6.74c1.47-1.95,2.27-3,2.39-3.1a6.44,6.44,0,0,1,8.6.09,7.75,7.75,0,0,1,2.3,3.72,6.4,6.4,0,0,1-.45,4.52c-.82,1.89-1.91,4.14-3.28,6.73a24.68,24.68,0,0,0-2.56,6.92c-.36,3.07,0,5.07,1.06,6s3,.89,5.85-.18a23.52,23.52,0,0,0,7.09-5.05q3.72-3.63,7.35-7.71t6.82-7.79a48.71,48.71,0,0,1,5.32-5.5,15.82,15.82,0,0,1,1.33-1.15c.53-.41,1-.5,1.33-.26.59.23.91.56,1,1a9.27,9.27,0,0,1,.09,1.33A88.64,88.64,0,0,1,216.19,221,69.73,69.73,0,0,1,209,231.16a53.67,53.67,0,0,1-8.86,8.33,42.71,42.71,0,0,1-10.54,5.76,13.36,13.36,0,0,1-6.38.8,12.33,12.33,0,0,1-8.87-6.12A16.86,16.86,0,0,1,172.42,234.62Z"/><path class="cls-2" d="M297.7,210.61a20.43,20.43,0,0,1-7.09.35,25.66,25.66,0,0,1-6.91-1.86,22.08,22.08,0,0,1-6-3.72q-1.59,5.15-3.63,11.16a90.83,90.83,0,0,1-4.69,11.34,45.09,45.09,0,0,1-6.21,9.4,16.35,16.35,0,0,1-8.15,5.31,3.89,3.89,0,0,1-2.66.18,11.85,11.85,0,0,1-3.28-1.33,20.42,20.42,0,0,1-3.1-2.21,14.9,14.9,0,0,1-2.3-2.49,10.44,10.44,0,0,1-1.86-4.51,30.88,30.88,0,0,1-.45-5.32,38.43,38.43,0,0,1,.36-5.32,34.57,34.57,0,0,0,.36-4.52q-1.08,1.6-3.37,5.76t-5.05,8.51a65.78,65.78,0,0,1-5.58,7.62c-1.9,2.19-3.43,3.22-4.61,3.1a11.48,11.48,0,0,1-5.41-2,9.77,9.77,0,0,1-3.45-4.16q-1.07-2.66-.54-8.33a102.62,102.62,0,0,1,1.87-11.87q1.32-6.21,2.75-11.7t2.12-8.15c0-1.06.62-1.53,1.86-1.42a9.31,9.31,0,0,1,4,1.51,11.55,11.55,0,0,1,3.63,3.72,7.38,7.38,0,0,1,1,5.4q-.9,4.26-1.69,7.8t-1.77,6.82c-.65,2.19-1.36,4.46-2.13,6.83s-1.62,5-2.56,7.79q.53,1.06,2.83-2a86.76,86.76,0,0,0,5-7.63q2.66-4.51,5.14-9.3t3.72-6.91a6.45,6.45,0,0,0,1.42-3.37,10,10,0,0,1,1.06-3.54,2.75,2.75,0,0,1,2.66-1.42,7.79,7.79,0,0,1,3.19,1.16,14.8,14.8,0,0,1,2.75,2.12,8.66,8.66,0,0,1,1.32,1.51c.71,1.42.89,3.45.54,6.11s-.78,5.5-1.24,8.51-.86,6-1.15,8.86,0,5.17,1,6.82a2.91,2.91,0,0,0,1.42.44c.59.06,1.18-.38,1.77-1.33a85.56,85.56,0,0,0,4.87-10.63q2.57-6.56,4.7-13.73c1.42-4.79,2.59-9.45,3.54-14A57.69,57.69,0,0,0,269,184.47c0-1.54.56-2.48,1.68-2.84a4.76,4.76,0,0,1,3.63.45,11.81,11.81,0,0,1,3.64,2.92,6.84,6.84,0,0,1,1.68,4.61,14.28,14.28,0,0,0,2.4,8.5,16.27,16.27,0,0,0,6.11,5.23,23,23,0,0,0,8.06,2.3,29.22,29.22,0,0,0,8.24-.26c.71-.12,1.12-.09,1.24.09s.09.44-.09.8a6.17,6.17,0,0,1-1.15,1.41A19.86,19.86,0,0,1,297.7,210.61Z"/><path class="cls-2" d="M199,130.42a17.11,17.11,0,0,0-1.81,3.54q-1,2.41-2.07,5.43t-2.37,6.25q-1.29,3.24-2.64,6a29.06,29.06,0,0,1-2.83,4.75,5.58,5.58,0,0,1-3,2.33,3.79,3.79,0,0,1-1.43,0,4.84,4.84,0,0,1-1.46-.45,9.11,9.11,0,0,1-1.36-.79,5.17,5.17,0,0,1-1-.9,13,13,0,0,1-2.45-5.92,38.05,38.05,0,0,1-.48-7.94,68.16,68.16,0,0,1,.94-9q.78-4.71,1.73-9.12t1.92-8.17q1-3.76,1.58-6.33a1.87,1.87,0,0,1,1.62-1.58,4.22,4.22,0,0,1,2.49.49,6.26,6.26,0,0,1,2.14,1.85,3,3,0,0,1,.61,2.56c-.26,1-.63,2.56-1.13,4.52s-1.07,4.14-1.7,6.55-1.27,5-1.92,7.64-1.23,5.29-1.73,7.8-.87,4.82-1.09,6.93a19.85,19.85,0,0,0,0,5.05,6.12,6.12,0,0,0,.37,1.2,5.92,5.92,0,0,0,.72,1.32,1.75,1.75,0,0,0,.94.71c.35.1.73-.12,1.13-.67a25.36,25.36,0,0,0,2.22-4.52c.88-2.16,1.84-4.6,2.86-7.31s2.09-5.5,3.17-8.36,2.12-5.4,3.12-7.61a51,51,0,0,1,2.94-5.57,22.07,22.07,0,0,1,3.69-4.52,1.53,1.53,0,0,1,.72-.41,1,1,0,0,1,.79.11,10.74,10.74,0,0,1,2.07,1.58,3.17,3.17,0,0,1,.87,2.71c-.15,1.26-.34,2.74-.57,4.45s-.45,3.54-.68,5.49-.42,4-.6,6-.3,4-.37,5.91a50.35,50.35,0,0,0,0,5.24,14.87,14.87,0,0,0,.68,3.91c.15.61.36,1,.64,1.06a1.1,1.1,0,0,0,.94-.15,6.89,6.89,0,0,0,1.58-1.7,22.22,22.22,0,0,0,1.44-2.37q2.1-4.37,4.18-9.9t3.87-11.23q1.81-5.69,3.32-11c1-3.57,1.81-6.68,2.41-9.34l.41-1.81c.18-.75.39-1.49.64-2.22a8.9,8.9,0,0,1,.87-1.88,1.41,1.41,0,0,1,1.17-.8,2.43,2.43,0,0,1,1.39,1.36,10,10,0,0,1,.75,2.34,12.3,12.3,0,0,1,.27,2.56c0,.85,0,1.53-.08,2q-.82,5-2.26,10.66t-3.54,11.56l-2.11,5.65q-1.2,3.24-2.71,6.48a47.71,47.71,0,0,1-3.28,6,14.79,14.79,0,0,1-3.8,4.19,9.44,9.44,0,0,1-3,1.5,8.09,8.09,0,0,1-3.05.3,6,6,0,0,1-2.75-1,5.83,5.83,0,0,1-2-2.53,17.72,17.72,0,0,1-1.51-5.12,53.24,53.24,0,0,1-.57-5.91c-.07-2-.07-3.85,0-5.61S198.94,131.53,199,130.42Z"/><path class="cls-2" d="M236,148.8,234.44,150a11,11,0,0,1-1.81,1.13,9.13,9.13,0,0,1-2.07.75,5.38,5.38,0,0,1-2.3,0,4.21,4.21,0,0,1-1.65-.64,9.23,9.23,0,0,1-1.44-1.17,3.2,3.2,0,0,1-.82-2,9.28,9.28,0,0,1-.08-2,38.72,38.72,0,0,1,1-4.14,36.31,36.31,0,0,1,1.66-4.3,24.27,24.27,0,0,1,4.22-6.17,11.62,11.62,0,0,1,6.18-3.47,6.62,6.62,0,0,1,2.52-.11,5.28,5.28,0,0,1,2.3.87,4.58,4.58,0,0,1,1.5,1.69,3.07,3.07,0,0,1,.23,2.22c-.1.3-.22.61-.34.91a3,3,0,0,1-.45.75,1,1,0,0,1-.49.34c-.15,0-.3-.11-.45-.41s-.12-.37-.19-.65a4.07,4.07,0,0,0-.34-.82A2.67,2.67,0,0,0,241,132a1.71,1.71,0,0,0-1.09-.34,5,5,0,0,0-3.24,1.77,28.74,28.74,0,0,0-3.47,4.15,39.8,39.8,0,0,0-2.86,4.74,19.31,19.31,0,0,0-1.5,3.58c-.31,1.31-.28,2,.07,2.07s.9-.2,1.66-.83a22.66,22.66,0,0,0,2.56-2.6c1-1.1,1.85-2.19,2.71-3.27s1.59-2,2.22-2.86,1-1.27,1-1.32a2.73,2.73,0,0,1,3.65,0,3.29,3.29,0,0,1,1,1.59,2.7,2.7,0,0,1-.19,1.92c-.35.8-.81,1.76-1.39,2.86a10.23,10.23,0,0,0-1.09,2.94c-.15,1.3,0,2.16.45,2.56s1.28.37,2.48-.08a10,10,0,0,0,3-2.14q1.57-1.55,3.12-3.28c1-1.15,2-2.26,2.9-3.31a20.85,20.85,0,0,1,2.26-2.34,6.37,6.37,0,0,1,.57-.49c.22-.17.41-.21.56-.11s.39.24.42.41a5.17,5.17,0,0,1,0,.57,37.78,37.78,0,0,1-2.33,4.74,29.23,29.23,0,0,1-3.05,4.33,22.94,22.94,0,0,1-3.77,3.54,17.91,17.91,0,0,1-4.48,2.45,5.69,5.69,0,0,1-2.71.34,5.29,5.29,0,0,1-3.77-2.6A7.12,7.12,0,0,1,236,148.8Z"/><path class="cls-2" d="M257.79,155.2a1.23,1.23,0,0,0,1,.8,2.15,2.15,0,0,0,1.25-.34,51.71,51.71,0,0,0,4.29-4.22c1.36-1.51,2.65-3,3.88-4.52s2.43-3,3.61-4.41,2.33-2.72,3.43-3.88c.4-.4.72-.49.94-.26a.94.94,0,0,1,.12,1c-.71,1.15-1.41,2.27-2.11,3.35s-1.43,2.17-2.19,3.28c-1.55,2.21-3.15,4.57-4.78,7.08a31.83,31.83,0,0,1-5.39,6.4,6.82,6.82,0,0,1-3.91,1.88,6.94,6.94,0,0,1-3.69-1.24,4.49,4.49,0,0,1-2-3.13,41,41,0,0,1,.15-9.26,88.74,88.74,0,0,1,2.19-11.23A115.43,115.43,0,0,1,258.2,125q2.15-5.73,4.71-11.15t5.35-10.09q1.28-2,2.56-3.88a33.26,33.26,0,0,1,2.71-3.43,3.06,3.06,0,0,1,1.32-1,2,2,0,0,1,1.62.08,2.46,2.46,0,0,1,1.43,2.79,47.66,47.66,0,0,1-1.85,8.66,59.69,59.69,0,0,1-3.2,8.13,67.66,67.66,0,0,1-4.22,7.54,75.42,75.42,0,0,1-5,6.85,1.55,1.55,0,0,0-.34.53,5.18,5.18,0,0,1-.26.6q-1.12,3-2.22,6.63t-1.89,7a61.14,61.14,0,0,0-1.13,6.37A16.09,16.09,0,0,0,257.79,155.2Zm18.53-53.32a105.17,105.17,0,0,0-5.8,11.14l-5.12,11.45a13.91,13.91,0,0,0,1.69-2.29c.68-1.08,1.39-2.31,2.15-3.7s1.5-2.87,2.26-4.48,1.45-3.16,2.1-4.67,1.23-2.92,1.74-4.25A20.45,20.45,0,0,0,276.32,101.88Z"/><path class="cls-2" d="M280,139.69a17.2,17.2,0,0,1,1.39-1.81c.68-.8,1.49-1.68,2.45-2.64s2-1.92,3.09-2.9,2.18-1.85,3.24-2.63a26.85,26.85,0,0,1,2.93-1.92,4.13,4.13,0,0,1,2.19-.68,1.94,1.94,0,0,1,1.16.34,2.72,2.72,0,0,1,.76.75,1,1,0,0,1,.19.75c-.06.23-.26.37-.61.42a7.17,7.17,0,0,0-2.48,1.36,38.14,38.14,0,0,0-3.39,2.78c-1.16,1.06-2.21,2.09-3.17,3.09a12,12,0,0,0-1.73,2.11,3.21,3.21,0,0,1,1.7,2.22,18.26,18.26,0,0,1,.6,4c.07,1.53.07,3.13,0,4.79s-.09,3.19,0,4.59a13.68,13.68,0,0,0,.49,3.47c.28.9.77,1.33,1.47,1.28.3,0,.76-.32,1.39-1a27.34,27.34,0,0,0,2.11-2.41c.78-1,1.6-2.07,2.45-3.27s1.67-2.4,2.45-3.58,1.47-2.27,2.07-3.28,1.08-1.8,1.43-2.41.65-.93.9-.83.33.38.23.83a15.27,15.27,0,0,1-.83,2.71,18.17,18.17,0,0,1-1.2,2.42c-.35.65-.84,1.51-1.47,2.59s-1.36,2.21-2.19,3.39-1.7,2.35-2.63,3.51A18.07,18.07,0,0,1,292,160.7a9.19,9.19,0,0,1-3.09,1.66,3.62,3.62,0,0,1-3-.38,3.27,3.27,0,0,1-2.15-1.77,10.31,10.31,0,0,1-1-3.31,25.76,25.76,0,0,1-.22-4.11q0-2.17.18-4.29c.1-1.4.19-2.71.27-3.92a14.2,14.2,0,0,0,0-2.78,7.18,7.18,0,0,0-2.67,2.86,30.52,30.52,0,0,0-2.19,4.56,47,47,0,0,0-1.54,4.67c-.41,1.48-.66,2.52-.76,3.12a3.49,3.49,0,0,0-.07.68,1.87,1.87,0,0,1-.15.68c-.15.55-.35.89-.61,1a.77.77,0,0,1-.75,0,1.73,1.73,0,0,1-.68-.67c-.2-.33-.37-.64-.52-.94a11.55,11.55,0,0,1-.64-2.9,30.07,30.07,0,0,1-.19-3.43c0-1.16,0-2.25.07-3.28a19.24,19.24,0,0,1,.23-2.37q.38-2.86,1.28-6.93t2.3-8.66q1.39-4.59,3.12-9.42t3.81-9.3a93.44,93.44,0,0,1,4.33-8.32,35.56,35.56,0,0,1,4.67-6.41,1.9,1.9,0,0,1,1.77-.56,3.93,3.93,0,0,1,1.84.9,4.47,4.47,0,0,1,1.25,1.77,2.34,2.34,0,0,1,0,2,37.43,37.43,0,0,0-1.7,4.63q-.94,3.06-2.59,7.35t-4.26,9.68A101.87,101.87,0,0,1,281.74,134a16.81,16.81,0,0,0-1.13,2.83A21.74,21.74,0,0,0,280,139.69Zm2.33-8.51a44.33,44.33,0,0,0,2.41-4.3q1.28-2.55,2.64-5.46t2.63-5.87c.86-2,1.63-3.87,2.34-5.65s1.29-3.38,1.77-4.78.81-2.49,1-3.24c-1,1.8-2.06,3.83-3.17,6.06s-2.22,4.59-3.35,7.08-2.23,5.1-3.31,7.83S283.25,128.37,282.34,131.18Z"/><path class="cls-2" d="M309.15,110.09c-.4,1-.74,1.8-1,2.41a5.56,5.56,0,0,1-1.47,1.8.92.92,0,0,1-.68.31,1.25,1.25,0,0,1-.71-.23,2.23,2.23,0,0,1-.57-.53.8.8,0,0,1-.15-.67,4.37,4.37,0,0,1,.9-2.3,20.83,20.83,0,0,1,1.59-1.77,20.44,20.44,0,0,1,2.93-2.56c.25-.25.37-.24.34,0a5.24,5.24,0,0,1-.26,1.13c-.15.48-.33,1-.53,1.43S309.2,109.94,309.15,110.09Z"/><path class="cls-2" d="M316.31,151a3.47,3.47,0,0,1-.45.75c-.8.55-1.36.4-1.66-.45-.1-.4-.17-.78-.23-1.13a9.93,9.93,0,0,1-.07-1.13c0-1.11,0-2.21,0-3.32a24.08,24.08,0,0,1,.9-4.1,44.23,44.23,0,0,1,1.62-4.41q.94-2.17,2-4.1A25.14,25.14,0,0,1,320.3,130a1.62,1.62,0,0,1,1.24-.75,2.44,2.44,0,0,1,1.55.38,3.23,3.23,0,0,1,1.2,1.28,2.6,2.6,0,0,1,.23,1.88,3.19,3.19,0,0,0-.3.45c-.15.25-.3.53-.45.83s-.3.59-.46.86a2.45,2.45,0,0,1-.3.49,18.2,18.2,0,0,0,1.66-1.35c.55-.5,1.12-1,1.69-1.43a13,13,0,0,1,1.78-1.17,4,4,0,0,1,1.95-.49,3.7,3.7,0,0,1,2.26.72A5.93,5.93,0,0,1,334,133.4a5.27,5.27,0,0,1,.79,2.18,5.53,5.53,0,0,1-.15,2.23,18.49,18.49,0,0,1-1.88,3.95q-1.2,1.92-2.45,3.8c-.83,1.26-1.59,2.53-2.3,3.81a15,15,0,0,0-1.5,3.95c-.3,1.06-.32,1.71,0,2a1,1,0,0,0,1.09.15,5.2,5.2,0,0,0,1.4-.75l1-.76a48.43,48.43,0,0,0,5.8-5.31q2.72-2.9,5.35-5.53a13.54,13.54,0,0,1,2.83-2.45c.37-.13.42.13.15.75a25.76,25.76,0,0,1-1.36,2.53c-.63,1.05-1.19,2-1.69,2.78-.61,1-1.44,2.22-2.49,3.66a40.83,40.83,0,0,1-3.5,4.14,25.5,25.5,0,0,1-4,3.39,6.76,6.76,0,0,1-3.76,1.39,4.48,4.48,0,0,1-2.26-.56,5.81,5.81,0,0,1-2.68-3.28,7,7,0,0,1-.33-2.11,18.61,18.61,0,0,1,1.54-7.38,62.06,62.06,0,0,1,3.28-6.63c.55-1.05.7-1.78.45-2.18s-1-.33-2.19.22a7.24,7.24,0,0,0-2.78,2.45,31.55,31.55,0,0,0-2.38,3.84q-1.09,2.07-2,4.11A27.8,27.8,0,0,1,316.31,151Z"/></g></g></svg>