<svg width="25" height="25" viewBox="0 0 25 25" fill="none" xmlns="http://www.w3.org/2000/svg">
<path d="M7.2372 0H17.7633C21.7576 0 25 3.24248 25 7.23684V17.7632C25 21.7575 21.7576 25 17.7633 25H7.2372C3.24292 25 0.000504392 21.7575 0.000504392 17.7632V7.23684C-0.0464871 3.28947 3.19593 0 7.2372 0ZM6.95525 2.53759C4.4647 2.53759 2.44406 4.55827 2.44406 7.04887V18.0451C2.44406 20.5357 4.4647 22.5564 6.95525 22.5564H17.9513C20.4418 22.5564 22.4625 20.5357 22.4625 18.0451V7.04887C22.4625 4.55827 20.4418 2.53759 17.9513 2.53759H6.95525ZM19.0321 4.41729C19.8779 4.41729 20.5828 5.12218 20.5828 5.96804C20.5828 6.81391 19.8779 7.5188 19.0321 7.5188C18.1862 7.5188 17.4814 6.81391 17.4814 5.96804C17.4814 5.12218 18.1862 4.41729 19.0321 4.41729ZM12.4533 6.29699C15.9306 6.29699 18.7031 9.11654 18.7031 12.547C18.7031 15.9774 15.8836 18.797 12.4533 18.797C9.02288 18.797 6.20339 15.9774 6.20339 12.547C6.20339 9.11654 9.02288 6.29699 12.4533 6.29699ZM12.4533 8.78759C10.3856 8.78759 8.69394 10.4793 8.69394 12.547C8.69394 14.6147 10.3856 16.3064 12.4533 16.3064C14.5209 16.3064 16.2126 14.6147 16.2126 12.547C16.2126 10.4793 14.5679 8.78759 12.4533 8.78759Z" fill="#252C3C"/>
</svg>
