<svg width="21" height="21" viewBox="0 0 21 21" fill="none" xmlns="http://www.w3.org/2000/svg">
<path d="M4.21854 9.08601C5.88742 12.3774 8.62252 15.1125 11.9139 16.7813L14.4636 14.2317C14.7881 13.9072 15.2517 13.8145 15.6689 13.9535C16.9669 14.3707 18.3576 14.6025 19.8411 14.6025C20.4901 14.6025 21 15.1125 21 15.7615V19.8409C21 20.4899 20.4901 20.9998 19.8411 20.9998C8.90066 21.0462 0 12.1456 0 1.15893C0 0.509929 0.509934 0 1.15894 0H5.23841C5.88742 0 6.39735 0.509929 6.39735 1.15893C6.39735 2.596 6.62914 4.03308 7.04636 5.33108C7.18543 5.7483 7.09272 6.21187 6.76821 6.53637L4.21854 9.08601Z" fill="#252C3C"/>
</svg>
